<svg width="20" height="27" viewBox="0 0 20 27" fill="none" xmlns="http://www.w3.org/2000/svg">
<path d="M17.5 8.99998H16.25V6.49998C16.25 3.04998 13.45 0.249977 10 0.249977C6.55 0.249977 3.75 3.04998 3.75 6.49998V8.99998H2.5C1.125 8.99998 0 10.125 0 11.5V24C0 25.375 1.125 26.5 2.5 26.5H17.5C18.875 26.5 20 25.375 20 24V11.5C20 10.125 18.875 8.99998 17.5 8.99998ZM10 20.25C8.625 20.25 7.5 19.125 7.5 17.75C7.5 16.375 8.625 15.25 10 15.25C11.375 15.25 12.5 16.375 12.5 17.75C12.5 19.125 11.375 20.25 10 20.25ZM6.25 8.99998V6.49998C6.25 4.42498 7.925 2.74998 10 2.74998C12.075 2.74998 13.75 4.42498 13.75 6.49998V8.99998H6.25Z" fill="#6A6A6A"/>
</svg>
