<svg width="17" height="28" viewBox="0 0 17 28" fill="none" xmlns="http://www.w3.org/2000/svg">
<path d="M13.3752 0.249981H3.37524C1.65024 0.249981 0.250244 1.64998 0.250244 3.37498V24.625C0.250244 26.35 1.65024 27.75 3.37524 27.75H13.3752C15.1002 27.75 16.5002 26.35 16.5002 24.625V3.37498C16.5002 1.64998 15.1002 0.249981 13.3752 0.249981ZM8.37524 26.5C7.33774 26.5 6.50024 25.6625 6.50024 24.625C6.50024 23.5875 7.33774 22.75 8.37524 22.75C9.41274 22.75 10.2502 23.5875 10.2502 24.625C10.2502 25.6625 9.41274 26.5 8.37524 26.5ZM14.0002 21.5H2.75024V3.99998H14.0002V21.5Z" fill="#6A6A6A"/>
</svg>
